<svg xmlns="http://www.w3.org/2000/svg" viewBox="0 0 520 320" font-family="-apple-system, 'Segoe UI', Roboto, sans-serif" font-size="13">
  <style>
    .bg{fill:#1e1e1e}
    .header{fill:#181818}
    .hdr-text{fill:#cccccc;font-size:11px;font-weight:600;letter-spacing:.5px}
    .row-text{fill:#cccccc}
    .muted{fill:#858585;font-size:11px}
    .tag{fill:#dcdcaa}
    .danger{fill:#f14c4c}
    .row-hover{fill:#2a2d2e}
    .icon-btn{fill:#858585}
    .chev{stroke:#cccccc;stroke-width:1.4;fill:none}
  </style>

  <rect class="bg" width="520" height="320"/>

  <rect class="header" x="0" y="0" width="520" height="22"/>
  <polyline class="chev" points="8,9 12,13 16,9"/>
  <text class="hdr-text" x="22" y="15">TAGS</text>
  <g transform="translate(450,4)">
    <text class="icon-btn" x="0"  y="11">＋</text>
    <text class="icon-btn" x="20" y="11">▽</text>
    <text class="icon-btn" x="40" y="11">↻</text>
  </g>

  <text x="14" y="45" class="tag">⌂</text>
  <text x="32" y="45" class="row-text">v2026.04.0</text>
  <text x="120" y="45" class="muted">a3f12c8</text>

  <text x="14" y="69" class="tag">⌂</text>
  <text x="32" y="69" class="row-text">v2026.03.2</text>
  <text x="120" y="69" class="muted">88ee010</text>

  <rect class="row-hover" x="0" y="78" width="520" height="22"/>
  <text x="14" y="93" class="tag">⌂</text>
  <text x="32" y="93" class="row-text">v2026.03.1</text>
  <text x="120" y="93" class="muted">cc73441</text>
  <g transform="translate(460,82)">
    <text class="icon-btn" x="0"  y="11">✓</text>
    <text class="danger"   x="22" y="11">🗑</text>
  </g>

  <text x="14" y="117" class="tag">⌂</text>
  <text x="32" y="117" class="row-text">v2026.03.0</text>
  <text x="120" y="117" class="muted">12ab3f0</text>

  <text x="14" y="141" class="tag">⌂</text>
  <text x="32" y="141" class="row-text">v2026.02.4-hotfix</text>
  <text x="172" y="141" class="muted">7c0aa92</text>

  <text x="14" y="165" class="tag">⌂</text>
  <text x="32" y="165" class="row-text">v2026.02.3</text>
  <text x="120" y="165" class="muted">e44b330</text>

  <text x="14" y="189" class="tag">⌂</text>
  <text x="32" y="189" class="row-text">v2026.02.2</text>
  <text x="120" y="189" class="muted">5520ee1</text>

  <text x="14" y="213" class="tag">⌂</text>
  <text x="32" y="213" class="row-text">v2026.02.1</text>
  <text x="120" y="213" class="muted">9bc1d4e</text>
</svg>
